<?xml version="1.0" encoding="UTF-8"?>
<svg id="Layer_2" data-name="Layer 2" xmlns="http://www.w3.org/2000/svg" viewBox="0 0 80.03 89.38">
  <defs>
    <style>
      .cls-1 {
        fill: #221f1f;
      }

      .cls-2 {
        fill: none;
        stroke: #221f1f;
        stroke-miterlimit: 10;
        stroke-width: .5px;
      }
    </style>
  </defs>
  <g id="logo">
    <g id="sparkles">
      <path id="sparkle-3" class="cls-2" d="M50.17,29.3c.42-.61.61-1.81.61-1.81,0,0,.2,1.37.69,1.7s1.76.5,1.76.5c0,0-1.36.35-1.73.79s-.61,1.81-.61,1.81c0,0-.35-1.38-.69-1.7s-1.76-.5-1.76-.5c0,0,1.32-.18,1.73-.79Z"/>
      <path id="sparkle-2" class="cls-2" d="M58.52,31.64c.54-.79.78-2.33.78-2.33,0,0,.26,1.76.89,2.19s2.27.65,2.27.65c0,0-1.75.45-2.23,1.02s-.78,2.33-.78,2.33c0,0-.45-1.78-.89-2.19s-2.27-.65-2.27-.65c0,0,1.69-.24,2.23-1.02Z"/>
      <path id="sparkle-1" class="cls-2" d="M52.91,37.16c.33-.48.48-1.42.48-1.42,0,0,.16,1.08.54,1.34s1.39.4,1.39.4c0,0-1.07.28-1.37.63s-.48,1.42-.48,1.42c0,0-.27-1.09-.54-1.34s-1.39-.4-1.39-.4c0,0,1.04-.14,1.37-.63Z"/>
    </g>
    <path id="draw-main" class="cls-1" d="M15.62,39.94C6.81,35.06-.63,20.36,1.31,10.27,2.42,3.34,9.94-2.1,16.88.79c3.95,1.68,6.04,4.91,7.78,8.29,3.71,8.44,6.49,17.47,7.42,26.64.89,10.45,1.28,25.48,1.8,35.97-.08,3.02.38,6.65-2.07,8.99-.33.26-.76.56-1.52.66-.69.12-1.68-.31-2.07-.79-1.16-1.41-1.89-2.83-2.6-4.47-4.42-10.34.08-21.87,3.28-31.86,1.03-3.06,1.69-6.1,3.69-8.89,2.36-3.43,7.08-5.17,10.69-2.58,3.04,2.08,4.62,5,5.95,8.21,2.38,5.76,3.2,11.96,4,18.01.16,2.01,1.08,5.36.5,7.44-.77,3.73-5.76,5.54-7.94,1.95-4.03-8.64-.34-20.19,8-24.81,6.28-2.61,9.31,7.05,10.31,11.58.54,2.35.88,6.36,2.35,8.29,1.48,2.05,4.99,3.52,7.15,1.7,1.89-2.04,2.99-5.15,3.46-7.89,0,0,.38.03.38.03-.42,3.04-1.28,6.02-3.31,8.44-1.21,1.2-3.08,1.4-4.61,1-5.41-1.26-5.9-6.72-7.05-11.18-.67-2.84-1.88-5.44-3.45-7.86-.74-1.09-1.81-2.01-2.77-2.17-2.11-.16-4.42,2.84-5.67,4.54-2.32,3.38-3.35,7.67-2.86,11.7.18,1.33.57,2.66,1.03,3.84.21.54.53.79.46.66-.02-.04-.16-.09-.19-.09-.04-.02,0-.03.06-.1.08-.12.16-.2.17-.35.06-.51.07-.94-.01-1.72-1.24-8.05-1.75-22.23-8.38-27.54-1.13-.73-1.99-.73-2.99-.17-3.1,1.95-3.58,5.51-4.93,9.26-3.16,9.9-8.35,22-2.38,31.75,0,0,.27.41.27.41.07.11.25.36.15.23-.14-.25-.78-.43-1.08-.38-.39.05-.48.17-.52.19.63-.87.73-2.56.8-3.88.18-3.66-.03-7.33-.08-11.06,0,0-.47-17.91-.47-17.91-.31-10.3-1.54-20.7-7.67-29.21-1.43-2.1-2.97-4.81-4.99-6.24-2.94-2.38-5.65.23-6.71,3.1-1.15,3.44-.74,7.69-.55,11.38.46,5.49,1.98,11.38,5.96,15.93l-.08.11h0Z"/>
    <path id="draw-circle" class="cls-1" d="M80.02,60.05c-7.97,25.41-40.48,38.4-62.66,22.13C4.17,72.56-3.33,57.22,1.45,41,11.18,7.05,58.31,2.23,74.1,33.87c2.71,5.83,3.8,12.26,3.57,18.61-.02,1.25,0,2.5-.07,3.78-.12,2.61-1.26,4.95-2.25,7.23-.05.12-.23.04-.19-.08.91-2.32,1.95-4.66,1.97-7.17.03-1.25-.02-2.5-.03-3.76.06-6.25-1.16-12.54-3.95-18.15-8.92-18.6-33.84-25.34-51.58-15.51C8.19,25.69.1,41.48,2.34,56.35c1.62,9.91,8.11,18.53,16.04,24.44,16.8,12.56,40.85,7.71,53.95-7.89,3.23-3.82,5.73-8.23,7.51-12.91.03-.12.24-.05.19.07h0Z"/>
  </g>
</svg>