<?xml version="1.0" encoding="UTF-8"?>
<svg id="Layer_2" data-name="Layer 2" xmlns="http://www.w3.org/2000/svg" viewBox="0 0 80.72 89.89">
  <defs>
    <style>
      .cls-1 {
        fill: #221f1f;
      }

      .cls-2 {
        fill: none;
        stroke: #221f1f;
        stroke-miterlimit: 10;
        stroke-width: .5px;
      }
    </style>
  </defs>
  <g id="logo">
    <g id="sparkles">
      <path id="sparkle-3" class="cls-2" d="M49.99,29.3c.42-.61.61-1.81.61-1.81,0,0,.2,1.37.69,1.7s1.76.5,1.76.5c0,0-1.36.35-1.73.79s-.61,1.81-.61,1.81c0,0-.35-1.38-.69-1.7s-1.76-.5-1.76-.5c0,0,1.32-.18,1.73-.79Z"/>
      <path id="sparkle-2" class="cls-2" d="M58.34,31.64c.54-.79.78-2.33.78-2.33,0,0,.26,1.76.89,2.19s2.27.65,2.27.65c0,0-1.75.45-2.23,1.02s-.78,2.33-.78,2.33c0,0-.45-1.78-.89-2.19s-2.27-.65-2.27-.65c0,0,1.69-.24,2.23-1.02Z"/>
      <path id="sparkle-1" class="cls-2" d="M52.73,37.16c.33-.48.48-1.42.48-1.42,0,0,.16,1.08.54,1.34s1.39.4,1.39.4c0,0-1.07.28-1.37.63s-.48,1.42-.48,1.42c0,0-.27-1.09-.54-1.34s-1.39-.4-1.39-.4c0,0,1.04-.14,1.37-.63Z"/>
    </g>
    <g id="draw-main">
      <path class="cls-1" d="M15.44,39.94C6.63,35.06-.81,20.36,1.13,10.27,2.24,3.34,9.76-2.1,16.7.79c3.95,1.68,6.04,4.91,7.78,8.29,3.71,8.44,6.49,17.47,7.42,26.64.89,10.45,1.28,25.48,1.8,35.97-.08,3.02.38,6.65-2.07,8.99-.33.26-.76.56-1.52.66-.69.12-1.68-.31-2.07-.79-1.16-1.41-1.89-2.83-2.6-4.47-4.42-10.34.08-21.87,3.28-31.86,1.03-3.06,1.69-6.1,3.69-8.89,2.36-3.43,7.08-5.17,10.69-2.58,3.04,2.08,4.62,5,5.95,8.21,2.38,5.76,3.2,11.96,4,18.01.16,2.01,1.08,5.36.5,7.44-.77,3.73-5.76,5.54-7.94,1.95-4.03-8.64-.34-20.19,8-24.81,6.28-2.61,9.31,7.05,10.31,11.58.54,2.35.88,6.36,2.35,8.29,1.48,2.05,4.99,3.52,7.15,1.7,1.89-2.04,2.99-5.15,3.46-7.89,0,0,.38.03.38.03-.42,3.04-1.28,6.02-3.31,8.44-1.21,1.2-3.08,1.4-4.61,1-5.41-1.26-5.9-6.72-7.05-11.18-.67-2.84-1.88-5.44-3.45-7.86-.74-1.09-1.81-2.01-2.77-2.17-2.11-.16-4.42,2.84-5.67,4.54-2.32,3.38-3.35,7.67-2.86,11.7.18,1.33.57,2.66,1.03,3.84.21.54.53.79.46.66-.02-.04-.16-.09-.19-.09-.04-.02,0-.03.06-.1.08-.12.16-.2.17-.35.06-.51.07-.94-.01-1.72-1.24-8.05-1.75-22.23-8.38-27.54-1.13-.73-1.99-.73-2.99-.17-3.1,1.95-3.58,5.51-4.93,9.26-3.16,9.9-8.35,22-2.38,31.75,0,0,.27.41.27.41.07.11.25.36.15.23-.14-.25-.78-.43-1.08-.38-.39.05-.48.17-.52.19.63-.87.73-2.56.8-3.88.18-3.66-.03-7.33-.08-11.06,0,0-.47-17.91-.47-17.91-.31-10.3-1.54-20.7-7.67-29.21-1.43-2.1-2.97-4.81-4.99-6.24-2.94-2.38-5.65.23-6.71,3.1-1.15,3.44-.74,7.69-.55,11.38.46,5.49,1.98,11.38,5.96,15.93l-.08.11h0Z"/>
    </g>
    <g id="draw-circle">
      <path class="cls-1" d="M80.71,60.87c-8.09,25.35-40.92,37.51-63.25,22.43C4.39,74.53-3.38,57.45,1.44,42.03,7.59,21.65,30.38,7.93,51.06,14.72c9.87,3.02,18.87,9.92,23.04,19.49,2.61,5.9,3.54,12.33,3.32,18.69-.03,1.25,0,2.5-.06,3.78-.07,2.58-1.2,4.94-2.22,7.25-.05.12-.23.04-.18-.08.92-2.32,1.98-4.66,1.95-7.18.02-1.25-.03-2.51-.04-3.76.06-6.25-1.02-12.58-3.71-18.25-6.39-13.78-22.56-21.48-37.37-19.71C15.93,17.26-1.09,37.23,2.42,57.41c2.59,14.86,14.95,27.38,29.77,30.21,14.73,3.16,30.87-2.68,40.7-13.97,3.29-3.78,5.84-8.17,7.64-12.85.04-.12.24-.05.19.07h0Z"/>
    </g>
  </g>
</svg>